<svg id="visual" viewBox="0 0 960 300" width="960" height="300" xmlns="http://www.w3.org/2000/svg" xmlns:xlink="http://www.w3.org/1999/xlink" version="1.1"><rect x="0" y="0" width="960" height="300" fill="#060021"></rect><path d="M0 142L26.7 154C53.3 166 106.7 190 160 201.8C213.3 213.7 266.7 213.3 320 201.2C373.3 189 426.7 165 480 160.5C533.3 156 586.7 171 640 178.8C693.3 186.7 746.7 187.3 800 182.8C853.3 178.3 906.7 168.7 933.3 163.8L960 159L960 301L933.3 301C906.7 301 853.3 301 800 301C746.7 301 693.3 301 640 301C586.7 301 533.3 301 480 301C426.7 301 373.3 301 320 301C266.7 301 213.3 301 160 301C106.7 301 53.3 301 26.7 301L0 301Z" fill="#bf268a"></path><path d="M0 202L26.7 198.8C53.3 195.7 106.7 189.3 160 196.7C213.3 204 266.7 225 320 225.3C373.3 225.7 426.7 205.3 480 193.5C533.3 181.7 586.7 178.3 640 183.2C693.3 188 746.7 201 800 207.8C853.3 214.7 906.7 215.3 933.3 215.7L960 216L960 301L933.3 301C906.7 301 853.3 301 800 301C746.7 301 693.3 301 640 301C586.7 301 533.3 301 480 301C426.7 301 373.3 301 320 301C266.7 301 213.3 301 160 301C106.7 301 53.3 301 26.7 301L0 301Z" fill="#db3575"></path><path d="M0 205L26.7 211.5C53.3 218 106.7 231 160 235.8C213.3 240.7 266.7 237.3 320 237C373.3 236.7 426.7 239.3 480 241.5C533.3 243.7 586.7 245.3 640 243.2C693.3 241 746.7 235 800 233C853.3 231 906.7 233 933.3 234L960 235L960 301L933.3 301C906.7 301 853.3 301 800 301C746.7 301 693.3 301 640 301C586.7 301 533.3 301 480 301C426.7 301 373.3 301 320 301C266.7 301 213.3 301 160 301C106.7 301 53.3 301 26.7 301L0 301Z" fill="#eb4f61"></path><path d="M0 261L26.7 258.5C53.3 256 106.7 251 160 252.5C213.3 254 266.7 262 320 266.7C373.3 271.3 426.7 272.7 480 270.8C533.3 269 586.7 264 640 261.3C693.3 258.7 746.7 258.3 800 259.2C853.3 260 906.7 262 933.3 263L960 264L960 301L933.3 301C906.7 301 853.3 301 800 301C746.7 301 693.3 301 640 301C586.7 301 533.3 301 480 301C426.7 301 373.3 301 320 301C266.7 301 213.3 301 160 301C106.7 301 53.3 301 26.7 301L0 301Z" fill="#f26e50"></path></svg>